%TF.GenerationSoftware,KiCad,Pcbnew,7.0.5*%
%TF.CreationDate,2023-06-24T20:49:16-04:00*%
%TF.ProjectId,Reflow,5265666c-6f77-42e6-9b69-6361645f7063,rev?*%
%TF.SameCoordinates,Original*%
%TF.FileFunction,Copper,L1,Top*%
%TF.FilePolarity,Positive*%
%FSLAX46Y46*%
G04 Gerber Fmt 4.6, Leading zero omitted, Abs format (unit mm)*
G04 Created by KiCad (PCBNEW 7.0.5) date 2023-06-24 20:49:16*
%MOMM*%
%LPD*%
G01*
G04 APERTURE LIST*
%TA.AperFunction,ComponentPad*%
%ADD10C,8.200000*%
%TD*%
%TA.AperFunction,Conductor*%
%ADD11C,0.300000*%
%TD*%
%TA.AperFunction,Profile*%
%ADD12C,0.100000*%
%TD*%
G04 APERTURE END LIST*
D10*
%TO.P,J8,1,Pin_1*%
%TO.N,Net-(J1-Pin_1)*%
X45000000Y-105000000D03*
%TD*%
%TO.P,J1,1,Pin_1*%
%TO.N,Net-(J1-Pin_1)*%
X45000000Y-95000000D03*
%TD*%
D11*
%TO.N,Net-(J1-Pin_1)*%
X52999999Y-83500000D02*
X147000000Y-83500000D01*
X147000000Y-56500002D02*
X53000000Y-56500002D01*
X147000000Y-72500000D02*
X53000000Y-72500000D01*
X147000000Y-66500000D02*
X52999999Y-66500000D01*
X53000000Y-124500000D02*
X147000000Y-124500000D01*
X147000000Y-65499999D02*
X52999999Y-65499999D01*
X147000000Y-105499999D02*
X52999999Y-105499999D01*
X52999999Y-142500000D02*
X147000000Y-142500000D01*
X53000000Y-68500000D02*
X147000000Y-68500000D01*
X147000000Y-69499999D02*
X52999999Y-69499999D01*
X147000000Y-121499999D02*
X52999999Y-121499999D01*
X52999999Y-119499999D02*
X147000000Y-119499999D01*
X52999999Y-87499999D02*
X147000000Y-87499999D01*
X52999997Y-147500001D02*
X147000000Y-147500001D01*
X52999999Y-143499999D02*
X147000000Y-143499999D01*
X147000000Y-138500000D02*
X52999999Y-138500000D01*
X52999999Y-67500000D02*
X147000000Y-67500000D01*
X52500000Y-108792891D02*
X52500000Y-109207105D01*
X147000000Y-129499999D02*
X52999999Y-129499999D01*
X52500000Y-132792891D02*
X52500000Y-133207105D01*
X52999999Y-70500000D02*
X147000000Y-70500000D01*
X51500000Y-108063490D02*
X51500000Y-147646447D01*
X147000000Y-109499999D02*
X52999999Y-109499999D01*
X52999999Y-94500000D02*
X147000000Y-94500000D01*
X52999999Y-79499999D02*
X147000000Y-79499999D01*
X52999999Y-139500000D02*
X147000000Y-139500000D01*
X52999997Y-146500001D02*
X147000000Y-146500001D01*
X53000000Y-92500000D02*
X147000000Y-92500000D01*
X147000000Y-93499999D02*
X52999999Y-93499999D01*
X53000000Y-76500000D02*
X147000000Y-76500000D01*
X147000000Y-77499999D02*
X52999999Y-77499999D01*
X48436509Y-105000000D02*
X45000000Y-105000000D01*
X147000000Y-61499999D02*
X52999999Y-61499999D01*
X52999999Y-91500000D02*
X147000000Y-91500000D01*
X147000000Y-125499999D02*
X52999999Y-125499999D01*
X147000000Y-57500001D02*
X52999999Y-57500001D01*
X52500000Y-52792893D02*
X52500000Y-53207107D01*
X52999999Y-126500000D02*
X147000000Y-126500000D01*
X52500000Y-100792891D02*
X52500000Y-101207105D01*
X147000000Y-98500000D02*
X52999999Y-98500000D01*
X147000000Y-85499999D02*
X52999999Y-85499999D01*
X147000000Y-144500000D02*
X53000000Y-144500000D01*
X52500000Y-84792891D02*
X52500000Y-85207105D01*
X147000000Y-101499999D02*
X52999999Y-101499999D01*
X147000000Y-81499999D02*
X52999999Y-81499999D01*
X53000000Y-84500000D02*
X147000000Y-84500000D01*
X147000000Y-106500000D02*
X52999999Y-106500000D01*
X52999999Y-55500001D02*
X147000000Y-55500001D01*
X52999999Y-131500000D02*
X147000000Y-131500000D01*
X147000000Y-58500002D02*
X52999999Y-58500002D01*
X52999999Y-103499999D02*
X147000000Y-103499999D01*
X147000000Y-104500000D02*
X53000000Y-104500000D01*
X52500000Y-92792891D02*
X52500000Y-93207105D01*
X52999999Y-107500000D02*
X147000000Y-107500000D01*
X53000000Y-52500002D02*
X147000000Y-52500002D01*
X147000000Y-53500001D02*
X52999999Y-53500001D01*
X52999999Y-135499999D02*
X147000000Y-135499999D01*
X147000000Y-112500000D02*
X53000000Y-112500000D01*
X52500000Y-60792891D02*
X52500000Y-61207105D01*
X147000000Y-96500000D02*
X53000000Y-96500000D01*
X52999999Y-59500002D02*
X147000000Y-59500002D01*
X53000000Y-132500000D02*
X147000000Y-132500000D01*
X52999999Y-102500000D02*
X147000000Y-102500000D01*
X147000000Y-133499999D02*
X52999999Y-133499999D01*
X52999999Y-134500000D02*
X147000000Y-134500000D01*
X52500000Y-124792891D02*
X52500000Y-125207105D01*
X52999999Y-95499999D02*
X147000000Y-95499999D01*
X49398448Y-105398448D02*
X51101551Y-107101551D01*
X52999999Y-127499999D02*
X147000000Y-127499999D01*
X52999999Y-115500000D02*
X147000000Y-115500000D01*
X147000000Y-141499999D02*
X52999999Y-141499999D01*
X147000000Y-136500000D02*
X53000000Y-136500000D01*
X52999999Y-110500000D02*
X147000000Y-110500000D01*
X147000000Y-88500000D02*
X53000000Y-88500000D01*
X53000000Y-108500000D02*
X147000000Y-108500000D01*
X52999999Y-123500000D02*
X147000000Y-123500000D01*
X147000000Y-130500000D02*
X52999999Y-130500000D01*
X52999999Y-62500000D02*
X147000000Y-62500000D01*
X52500000Y-68792891D02*
X52500000Y-69207105D01*
X147000000Y-97499999D02*
X52999999Y-97499999D01*
X52500000Y-116792891D02*
X52500000Y-117207105D01*
X147000000Y-122500000D02*
X52999999Y-122500000D01*
X147000000Y-113499999D02*
X52999999Y-113499999D01*
X52999999Y-71499999D02*
X147000000Y-71499999D01*
X147000000Y-89499999D02*
X52999999Y-89499999D01*
X49398448Y-94601551D02*
X51101551Y-92898448D01*
X147000000Y-145499999D02*
X52999999Y-145499999D01*
X52353553Y-148500001D02*
X147000000Y-148500001D01*
X52999999Y-78500000D02*
X147000000Y-78500000D01*
X53000000Y-100500000D02*
X147000000Y-100500000D01*
X52999999Y-111499999D02*
X147000000Y-111499999D01*
X52999999Y-118500000D02*
X147000000Y-118500000D01*
X147000000Y-74500000D02*
X52999999Y-74500000D01*
X147000000Y-64500000D02*
X53000000Y-64500000D01*
X147000000Y-82500000D02*
X52999999Y-82500000D01*
X52999999Y-75500000D02*
X147000000Y-75500000D01*
X53000000Y-140500000D02*
X147000000Y-140500000D01*
X52999999Y-86500000D02*
X147000000Y-86500000D01*
X147000000Y-51500002D02*
X52353552Y-51500002D01*
X52999999Y-99500000D02*
X147000000Y-99500000D01*
X147000000Y-128500000D02*
X53000000Y-128500000D01*
X147000000Y-120500000D02*
X53000000Y-120500000D01*
X53000000Y-60500000D02*
X147000000Y-60500000D01*
X52500000Y-140792891D02*
X52500000Y-141207105D01*
X147000000Y-137499999D02*
X52999999Y-137499999D01*
X147000000Y-80500000D02*
X53000000Y-80500000D01*
X147000000Y-117499999D02*
X52999999Y-117499999D01*
X147000000Y-114500000D02*
X52999999Y-114500000D01*
X48436509Y-95000000D02*
X45000000Y-95000000D01*
X52999999Y-54500002D02*
X147000000Y-54500002D01*
X147000000Y-90500000D02*
X52999999Y-90500000D01*
X53000000Y-116500000D02*
X147000000Y-116500000D01*
X147000000Y-73499999D02*
X52999999Y-73499999D01*
X52999999Y-63499999D02*
X147000000Y-63499999D01*
X51500000Y-91936509D02*
X51500000Y-52353552D01*
X52500000Y-76792891D02*
X52500000Y-77207105D01*
X52999999Y-94500000D02*
G75*
G03*
X52500000Y-94999999I1J-500000D01*
G01*
X147500001Y-128000000D02*
G75*
G03*
X147000000Y-127499999I-500001J0D01*
G01*
X52499999Y-76999999D02*
G75*
G03*
X52499999Y-76792891I-1126241823J103554D01*
G01*
X147000000Y-76500000D02*
G75*
G03*
X147500000Y-75999999I0J500000D01*
G01*
X52999999Y-82500000D02*
G75*
G03*
X52500000Y-82999999I1J-500000D01*
G01*
X147000000Y-132500000D02*
G75*
G03*
X147500000Y-131999999I0J500000D01*
G01*
X52499982Y-77207111D02*
G75*
G03*
X52999999Y-77499998I417918J140211D01*
G01*
X147500001Y-130000000D02*
G75*
G03*
X147000000Y-129499999I-500001J0D01*
G01*
X52499982Y-93207111D02*
G75*
G03*
X52999999Y-93499998I417918J140211D01*
G01*
X52999996Y-60500020D02*
G75*
G03*
X52500001Y-60792891I-82096J-433080D01*
G01*
X147000000Y-122500000D02*
G75*
G03*
X147500000Y-122000000I0J500000D01*
G01*
X147000000Y-134500000D02*
G75*
G03*
X147500000Y-134000000I0J500000D01*
G01*
X147500000Y-83999999D02*
G75*
G03*
X147000000Y-83500000I-500000J-1D01*
G01*
X52499981Y-53207113D02*
G75*
G03*
X52999999Y-53500000I417919J140213D01*
G01*
X53000000Y-116500000D02*
G75*
G03*
X52500000Y-116999999I0J-500000D01*
G01*
X147500001Y-70000000D02*
G75*
G03*
X147000000Y-69499999I-500001J0D01*
G01*
X52499999Y-147000000D02*
G75*
G03*
X52999997Y-147500001I500001J0D01*
G01*
X147000000Y-114500000D02*
G75*
G03*
X147500000Y-114000000I0J500000D01*
G01*
X147500001Y-136000000D02*
G75*
G03*
X147000000Y-135499999I-500001J0D01*
G01*
X52999997Y-146499998D02*
G75*
G03*
X52499998Y-147000000I3J-500002D01*
G01*
X52499999Y-84999999D02*
G75*
G03*
X52499999Y-84792891I-1126241823J103554D01*
G01*
X147000000Y-102500000D02*
G75*
G03*
X147500000Y-102000000I0J500000D01*
G01*
X53000000Y-104500000D02*
G75*
G03*
X52500000Y-104999999I0J-500000D01*
G01*
X52500001Y-124999999D02*
G75*
G03*
X52999999Y-125499999I499999J-1D01*
G01*
X52499999Y-55000001D02*
G75*
G03*
X52999999Y-55500001I500001J1D01*
G01*
X147000000Y-92500000D02*
G75*
G03*
X147500000Y-91999999I0J500000D01*
G01*
X147500000Y-123999999D02*
G75*
G03*
X147000000Y-123500000I-500000J-1D01*
G01*
X52999999Y-86500000D02*
G75*
G03*
X52500000Y-86999999I1J-500000D01*
G01*
X52999999Y-118500000D02*
G75*
G03*
X52500000Y-118999999I1J-500000D01*
G01*
X52500000Y-130999999D02*
G75*
G03*
X52999999Y-131500000I500000J-1D01*
G01*
X52499999Y-125207105D02*
G75*
G03*
X52499999Y-124999999I-1126241823J103553D01*
G01*
X147000000Y-66500000D02*
G75*
G03*
X147500000Y-66000000I0J500000D01*
G01*
X147500001Y-64000000D02*
G75*
G03*
X147000000Y-63499999I-500001J0D01*
G01*
X52499999Y-100999999D02*
G75*
G03*
X52499999Y-100792891I-1126241823J103554D01*
G01*
X147000000Y-100500000D02*
G75*
G03*
X147500000Y-99999999I0J500000D01*
G01*
X147500001Y-138000000D02*
G75*
G03*
X147000000Y-137499999I-500001J0D01*
G01*
X51749984Y-51749985D02*
G75*
G03*
X51500000Y-52353552I603516J-603515D01*
G01*
X52500001Y-112999999D02*
G75*
G03*
X52999999Y-113499999I499999J-1D01*
G01*
X147000000Y-128500000D02*
G75*
G03*
X147500000Y-128000000I0J500000D01*
G01*
X147000000Y-64500000D02*
G75*
G03*
X147500000Y-64000000I0J500000D01*
G01*
X147500001Y-94000000D02*
G75*
G03*
X147000000Y-93499999I-500001J0D01*
G01*
X53000000Y-56500000D02*
G75*
G03*
X52500000Y-57000001I0J-500000D01*
G01*
X147000000Y-104500000D02*
G75*
G03*
X147500000Y-104000000I0J500000D01*
G01*
X147000000Y-94500000D02*
G75*
G03*
X147500000Y-94000000I0J500000D01*
G01*
X53000000Y-128500000D02*
G75*
G03*
X52500000Y-128999999I0J-500000D01*
G01*
X52999999Y-78500000D02*
G75*
G03*
X52500000Y-78999999I1J-500000D01*
G01*
X52999996Y-124500020D02*
G75*
G03*
X52500001Y-124792891I-82096J-433080D01*
G01*
X147500001Y-90000000D02*
G75*
G03*
X147000000Y-89499999I-500001J0D01*
G01*
X52999999Y-130500000D02*
G75*
G03*
X52500000Y-130999999I1J-500000D01*
G01*
X147500001Y-106000000D02*
G75*
G03*
X147000000Y-105499999I-500001J0D01*
G01*
X147000000Y-90500000D02*
G75*
G03*
X147500000Y-90000000I0J500000D01*
G01*
X52499999Y-77207105D02*
G75*
G03*
X52499999Y-76999999I-1126241823J103553D01*
G01*
X147500001Y-66000000D02*
G75*
G03*
X147000000Y-65499999I-500001J0D01*
G01*
X147500001Y-142000000D02*
G75*
G03*
X147000000Y-141499999I-500001J0D01*
G01*
X147500001Y-146000000D02*
G75*
G03*
X147000000Y-145499999I-500001J0D01*
G01*
X147000000Y-58500000D02*
G75*
G03*
X147500000Y-58000002I0J500000D01*
G01*
X147000000Y-60500000D02*
G75*
G03*
X147500000Y-60000001I0J500000D01*
G01*
X147000000Y-112500000D02*
G75*
G03*
X147500000Y-112000000I0J500000D01*
G01*
X147500000Y-75999999D02*
G75*
G03*
X147000000Y-75500000I-500000J-1D01*
G01*
X52500000Y-122999999D02*
G75*
G03*
X52999999Y-123500000I500000J-1D01*
G01*
X53000000Y-80500000D02*
G75*
G03*
X52500000Y-80999999I0J-500000D01*
G01*
X147500001Y-112000000D02*
G75*
G03*
X147000000Y-111499999I-500001J0D01*
G01*
X52500001Y-94999999D02*
G75*
G03*
X52999999Y-95499999I499999J-1D01*
G01*
X52500000Y-98999999D02*
G75*
G03*
X52999999Y-99500000I500000J-1D01*
G01*
X52500001Y-88999999D02*
G75*
G03*
X52999999Y-89499999I499999J-1D01*
G01*
X52499982Y-117207111D02*
G75*
G03*
X52999999Y-117499998I417918J140211D01*
G01*
X52500001Y-86999999D02*
G75*
G03*
X52999999Y-87499999I499999J-1D01*
G01*
X52999999Y-110500000D02*
G75*
G03*
X52500000Y-110999999I1J-500000D01*
G01*
X52500001Y-68999999D02*
G75*
G03*
X52999999Y-69499999I499999J-1D01*
G01*
X52499982Y-133207111D02*
G75*
G03*
X52999999Y-133499998I417918J140211D01*
G01*
X147000000Y-84500000D02*
G75*
G03*
X147500000Y-83999999I0J500000D01*
G01*
X147500001Y-126000000D02*
G75*
G03*
X147000000Y-125499999I-500001J0D01*
G01*
X51750013Y-148249988D02*
G75*
G03*
X52353553Y-148500001I603587J603588D01*
G01*
X53000000Y-72500000D02*
G75*
G03*
X52500000Y-72999999I0J-500000D01*
G01*
X147500001Y-88000000D02*
G75*
G03*
X147000000Y-87499999I-500001J0D01*
G01*
X53000000Y-84500000D02*
G75*
G03*
X52500000Y-84999999I0J-500000D01*
G01*
X147000000Y-96500000D02*
G75*
G03*
X147500000Y-96000000I0J500000D01*
G01*
X49398446Y-105398450D02*
G75*
G03*
X48436509Y-105000000I-961946J-961950D01*
G01*
X147500000Y-107999999D02*
G75*
G03*
X147000000Y-107500000I-500000J-1D01*
G01*
X53000000Y-76500000D02*
G75*
G03*
X52500000Y-76999999I0J-500000D01*
G01*
X52499999Y-141207105D02*
G75*
G03*
X52499999Y-140999999I-1126241823J103553D01*
G01*
X147499999Y-56000002D02*
G75*
G03*
X147000000Y-55500001I-499999J2D01*
G01*
X147000000Y-138500000D02*
G75*
G03*
X147500000Y-138000000I0J500000D01*
G01*
X51101550Y-92898447D02*
G75*
G03*
X51500000Y-91936509I-961950J961947D01*
G01*
X52499999Y-124999999D02*
G75*
G03*
X52499999Y-124792891I-1126241823J103554D01*
G01*
X147000000Y-88500000D02*
G75*
G03*
X147500000Y-88000000I0J500000D01*
G01*
X147500001Y-114000000D02*
G75*
G03*
X147000000Y-113499999I-500001J0D01*
G01*
X53000000Y-140500000D02*
G75*
G03*
X52500000Y-140999999I0J-500000D01*
G01*
X52500001Y-78999999D02*
G75*
G03*
X52999999Y-79499999I499999J-1D01*
G01*
X147499999Y-54000002D02*
G75*
G03*
X147000000Y-53500001I-499999J2D01*
G01*
X52999996Y-76500020D02*
G75*
G03*
X52500001Y-76792891I-82096J-433080D01*
G01*
X52500001Y-134999999D02*
G75*
G03*
X52999999Y-135499999I499999J-1D01*
G01*
X147500000Y-99999999D02*
G75*
G03*
X147000000Y-99500000I-500000J-1D01*
G01*
X52999996Y-132500020D02*
G75*
G03*
X52500001Y-132792891I-82096J-433080D01*
G01*
X52500001Y-64999999D02*
G75*
G03*
X52999999Y-65499999I499999J-1D01*
G01*
X52500001Y-110999999D02*
G75*
G03*
X52999999Y-111499999I499999J-1D01*
G01*
X52500001Y-60999999D02*
G75*
G03*
X52999999Y-61499999I499999J-1D01*
G01*
X52499982Y-141207111D02*
G75*
G03*
X52999999Y-141499998I417918J140211D01*
G01*
X147500000Y-139999999D02*
G75*
G03*
X147000000Y-139500000I-500000J-1D01*
G01*
X48436509Y-95000002D02*
G75*
G03*
X49398448Y-94601551I-9J1360402D01*
G01*
X147500000Y-115999999D02*
G75*
G03*
X147000000Y-115500000I-500000J-1D01*
G01*
X147499999Y-148000000D02*
G75*
G03*
X147000000Y-147500001I-499999J0D01*
G01*
X52499999Y-69207105D02*
G75*
G03*
X52499999Y-68999999I-1126241823J103553D01*
G01*
X53000000Y-136500000D02*
G75*
G03*
X52500000Y-136999999I0J-500000D01*
G01*
X147000000Y-148500000D02*
G75*
G03*
X147500000Y-148000000I0J500000D01*
G01*
X52499999Y-53000001D02*
G75*
G03*
X52999999Y-53500001I500001J1D01*
G01*
X53000000Y-92500000D02*
G75*
G03*
X52500000Y-92999999I0J-500000D01*
G01*
X147500001Y-96000000D02*
G75*
G03*
X147000000Y-95499999I-500001J0D01*
G01*
X147000000Y-142500000D02*
G75*
G03*
X147500000Y-142000000I0J500000D01*
G01*
X52999999Y-70500000D02*
G75*
G03*
X52500000Y-70999999I1J-500000D01*
G01*
X147000000Y-56500000D02*
G75*
G03*
X147500000Y-56000002I0J500000D01*
G01*
X52999996Y-52500021D02*
G75*
G03*
X52500001Y-52792893I-82096J-433079D01*
G01*
X147000000Y-78500000D02*
G75*
G03*
X147500000Y-78000000I0J500000D01*
G01*
X147500001Y-86000000D02*
G75*
G03*
X147000000Y-85499999I-500001J0D01*
G01*
X53000000Y-52500000D02*
G75*
G03*
X52500000Y-53000001I0J-500000D01*
G01*
X147500000Y-91999999D02*
G75*
G03*
X147000000Y-91500000I-500000J-1D01*
G01*
X52500001Y-62999999D02*
G75*
G03*
X52999999Y-63499999I499999J-1D01*
G01*
X53000000Y-60500000D02*
G75*
G03*
X52500000Y-60999999I0J-500000D01*
G01*
X52499999Y-132999999D02*
G75*
G03*
X52499999Y-132792891I-1126241823J103554D01*
G01*
X53000000Y-132500000D02*
G75*
G03*
X52500000Y-132999999I0J-500000D01*
G01*
X52499999Y-85207105D02*
G75*
G03*
X52499999Y-84999999I-1126241823J103553D01*
G01*
X147000000Y-136500000D02*
G75*
G03*
X147500000Y-136000000I0J500000D01*
G01*
X53000000Y-112500000D02*
G75*
G03*
X52500000Y-112999999I0J-500000D01*
G01*
X147500001Y-120000000D02*
G75*
G03*
X147000000Y-119499999I-500001J0D01*
G01*
X147500001Y-98000000D02*
G75*
G03*
X147000000Y-97499999I-500001J0D01*
G01*
X52499982Y-125207111D02*
G75*
G03*
X52999999Y-125499998I417918J140211D01*
G01*
X52500000Y-106999999D02*
G75*
G03*
X52999999Y-107500000I500000J-1D01*
G01*
X52499999Y-57000001D02*
G75*
G03*
X52999999Y-57500001I500001J1D01*
G01*
X52499999Y-140999999D02*
G75*
G03*
X52499999Y-140792891I-1126241823J103554D01*
G01*
X147000000Y-52500000D02*
G75*
G03*
X147500000Y-52000002I0J500000D01*
G01*
X52500001Y-84999999D02*
G75*
G03*
X52999999Y-85499999I499999J-1D01*
G01*
X147000000Y-82500000D02*
G75*
G03*
X147500000Y-82000000I0J500000D01*
G01*
X52499999Y-116999999D02*
G75*
G03*
X52499999Y-116792891I-1126241823J103554D01*
G01*
X52999996Y-116500020D02*
G75*
G03*
X52500001Y-116792891I-82096J-433080D01*
G01*
X52500001Y-126999999D02*
G75*
G03*
X52999999Y-127499999I499999J-1D01*
G01*
X52499999Y-133207105D02*
G75*
G03*
X52499999Y-132999999I-1126241823J103553D01*
G01*
X147000000Y-54500000D02*
G75*
G03*
X147500000Y-54000002I0J500000D01*
G01*
X53000000Y-100500000D02*
G75*
G03*
X52500000Y-100999999I0J-500000D01*
G01*
X52500001Y-116999999D02*
G75*
G03*
X52999999Y-117499999I499999J-1D01*
G01*
X52500001Y-140999999D02*
G75*
G03*
X52999999Y-141499999I499999J-1D01*
G01*
X147499999Y-58000002D02*
G75*
G03*
X147000000Y-57500001I-499999J2D01*
G01*
X51500002Y-108063490D02*
G75*
G03*
X51101550Y-107101552I-1360402J-10D01*
G01*
X52999996Y-100500020D02*
G75*
G03*
X52500001Y-100792891I-82096J-433080D01*
G01*
X147500001Y-80000000D02*
G75*
G03*
X147000000Y-79499999I-500001J0D01*
G01*
X52999996Y-68500020D02*
G75*
G03*
X52500001Y-68792891I-82096J-433080D01*
G01*
X52353552Y-51500023D02*
G75*
G03*
X51750000Y-51750001I-52J-853477D01*
G01*
X52500001Y-92999999D02*
G75*
G03*
X52999999Y-93499999I499999J-1D01*
G01*
X147000000Y-80500000D02*
G75*
G03*
X147500000Y-80000000I0J500000D01*
G01*
X52500001Y-118999999D02*
G75*
G03*
X52999999Y-119499999I499999J-1D01*
G01*
X52500000Y-82999999D02*
G75*
G03*
X52999999Y-83500000I500000J-1D01*
G01*
X147000000Y-110500000D02*
G75*
G03*
X147500000Y-110000000I0J500000D01*
G01*
X147000000Y-72500000D02*
G75*
G03*
X147500000Y-72000000I0J500000D01*
G01*
X51500022Y-147646447D02*
G75*
G03*
X51750000Y-148250001I853478J-53D01*
G01*
X53000000Y-144500000D02*
G75*
G03*
X52500000Y-144999999I0J-500000D01*
G01*
X52500001Y-108999999D02*
G75*
G03*
X52999999Y-109499999I499999J-1D01*
G01*
X147000000Y-126500000D02*
G75*
G03*
X147500000Y-126000000I0J500000D01*
G01*
X147500001Y-62000000D02*
G75*
G03*
X147000000Y-61499999I-500001J0D01*
G01*
X52999996Y-108500020D02*
G75*
G03*
X52500001Y-108792891I-82096J-433080D01*
G01*
X52500001Y-72999999D02*
G75*
G03*
X52999999Y-73499999I499999J-1D01*
G01*
X52500001Y-102999999D02*
G75*
G03*
X52999999Y-103499999I499999J-1D01*
G01*
X147500001Y-134000000D02*
G75*
G03*
X147000000Y-133499999I-500001J0D01*
G01*
X147500001Y-102000000D02*
G75*
G03*
X147000000Y-101499999I-500001J0D01*
G01*
X147500001Y-110000000D02*
G75*
G03*
X147000000Y-109499999I-500001J0D01*
G01*
X52999999Y-114500000D02*
G75*
G03*
X52500000Y-114999999I1J-500000D01*
G01*
X52500000Y-66999999D02*
G75*
G03*
X52999999Y-67500000I500000J-1D01*
G01*
X147000000Y-146500000D02*
G75*
G03*
X147500000Y-146000001I0J500000D01*
G01*
X147000000Y-62500000D02*
G75*
G03*
X147500000Y-62000000I0J500000D01*
G01*
X53000000Y-64500000D02*
G75*
G03*
X52500000Y-64999999I0J-500000D01*
G01*
X52499999Y-109207105D02*
G75*
G03*
X52499999Y-108999999I-1126241823J103553D01*
G01*
X52500000Y-74999999D02*
G75*
G03*
X52999999Y-75500000I500000J-1D01*
G01*
X53000000Y-88500000D02*
G75*
G03*
X52500000Y-88999999I0J-500000D01*
G01*
X52500001Y-136999999D02*
G75*
G03*
X52999999Y-137499999I499999J-1D01*
G01*
X52499982Y-85207111D02*
G75*
G03*
X52999999Y-85499998I417918J140211D01*
G01*
X147000000Y-70500000D02*
G75*
G03*
X147500000Y-70000000I0J500000D01*
G01*
X147500001Y-144000000D02*
G75*
G03*
X147000000Y-143499999I-500001J0D01*
G01*
X53000000Y-96500000D02*
G75*
G03*
X52500000Y-96999999I0J-500000D01*
G01*
X52999999Y-54500000D02*
G75*
G03*
X52500000Y-55000001I1J-500000D01*
G01*
X52999996Y-140500020D02*
G75*
G03*
X52500001Y-140792891I-82096J-433080D01*
G01*
X52500000Y-114999999D02*
G75*
G03*
X52999999Y-115500000I500000J-1D01*
G01*
X147000000Y-98500000D02*
G75*
G03*
X147500000Y-98000000I0J500000D01*
G01*
X147000000Y-108500000D02*
G75*
G03*
X147500000Y-107999999I0J500000D01*
G01*
X52999999Y-66500000D02*
G75*
G03*
X52500000Y-66999999I1J-500000D01*
G01*
X52499999Y-68999999D02*
G75*
G03*
X52499999Y-68792891I-1126241823J103554D01*
G01*
X147000000Y-140500000D02*
G75*
G03*
X147500000Y-139999999I0J500000D01*
G01*
X147000000Y-118500000D02*
G75*
G03*
X147500000Y-118000000I0J500000D01*
G01*
X52999999Y-58500000D02*
G75*
G03*
X52500000Y-59000001I1J-500000D01*
G01*
X52499982Y-101207111D02*
G75*
G03*
X52999999Y-101499998I417918J140211D01*
G01*
X147500001Y-82000000D02*
G75*
G03*
X147000000Y-81499999I-500001J0D01*
G01*
X52999999Y-98500000D02*
G75*
G03*
X52500000Y-98999999I1J-500000D01*
G01*
X52499982Y-109207111D02*
G75*
G03*
X52999999Y-109499998I417918J140211D01*
G01*
X52500001Y-100999999D02*
G75*
G03*
X52999999Y-101499999I499999J-1D01*
G01*
X52499982Y-61207111D02*
G75*
G03*
X52999999Y-61499998I417918J140211D01*
G01*
X52999999Y-62500000D02*
G75*
G03*
X52500000Y-62999999I1J-500000D01*
G01*
X52500001Y-132999999D02*
G75*
G03*
X52999999Y-133499999I499999J-1D01*
G01*
X52499999Y-93207105D02*
G75*
G03*
X52499999Y-92999999I-1126241823J103553D01*
G01*
X52999999Y-106500000D02*
G75*
G03*
X52500000Y-106999999I1J-500000D01*
G01*
X52500001Y-128999999D02*
G75*
G03*
X52999999Y-129499999I499999J-1D01*
G01*
X52499999Y-101207105D02*
G75*
G03*
X52499999Y-100999999I-1126241823J103553D01*
G01*
X52500001Y-144999999D02*
G75*
G03*
X52999999Y-145499999I499999J-1D01*
G01*
X147500001Y-72000000D02*
G75*
G03*
X147000000Y-71499999I-500001J0D01*
G01*
X52499999Y-117207105D02*
G75*
G03*
X52499999Y-116999999I-1126241823J103553D01*
G01*
X147500001Y-78000000D02*
G75*
G03*
X147000000Y-77499999I-500001J0D01*
G01*
X147000000Y-144500000D02*
G75*
G03*
X147500000Y-144000000I0J500000D01*
G01*
X52499999Y-61207105D02*
G75*
G03*
X52499999Y-60999999I-1126241823J103553D01*
G01*
X52999999Y-142500000D02*
G75*
G03*
X52500000Y-142999999I1J-500000D01*
G01*
X52500001Y-70999999D02*
G75*
G03*
X52999999Y-71499999I499999J-1D01*
G01*
X147000000Y-106500000D02*
G75*
G03*
X147500000Y-106000000I0J500000D01*
G01*
X52500001Y-76999999D02*
G75*
G03*
X52999999Y-77499999I499999J-1D01*
G01*
X52499999Y-92999999D02*
G75*
G03*
X52499999Y-92792891I-1126241823J103554D01*
G01*
X147000000Y-130500000D02*
G75*
G03*
X147500000Y-130000000I0J500000D01*
G01*
X147500001Y-74000000D02*
G75*
G03*
X147000000Y-73499999I-500001J0D01*
G01*
X52999996Y-84500020D02*
G75*
G03*
X52500001Y-84792891I-82096J-433080D01*
G01*
X52999999Y-122500000D02*
G75*
G03*
X52500000Y-122999999I1J-500000D01*
G01*
X52499999Y-60999999D02*
G75*
G03*
X52499999Y-60792891I-1126241823J103554D01*
G01*
X53000000Y-124500000D02*
G75*
G03*
X52500000Y-124999999I0J-500000D01*
G01*
X147500000Y-67999999D02*
G75*
G03*
X147000000Y-67500000I-500000J-1D01*
G01*
X147000000Y-116500000D02*
G75*
G03*
X147500000Y-115999999I0J500000D01*
G01*
X147000000Y-68500000D02*
G75*
G03*
X147500000Y-67999999I0J500000D01*
G01*
X52500000Y-90999999D02*
G75*
G03*
X52999999Y-91500000I500000J-1D01*
G01*
X52500001Y-120999999D02*
G75*
G03*
X52999999Y-121499999I499999J-1D01*
G01*
X147500001Y-104000000D02*
G75*
G03*
X147000000Y-103499999I-500001J0D01*
G01*
X52500001Y-142999999D02*
G75*
G03*
X52999999Y-143499999I499999J-1D01*
G01*
X147000000Y-124500000D02*
G75*
G03*
X147500000Y-123999999I0J500000D01*
G01*
X52499982Y-69207111D02*
G75*
G03*
X52999999Y-69499998I417918J140211D01*
G01*
X52499998Y-59000001D02*
G75*
G03*
X52999999Y-59500002I500002J1D01*
G01*
X53000000Y-108500000D02*
G75*
G03*
X52500000Y-108999999I0J-500000D01*
G01*
X147000000Y-86500000D02*
G75*
G03*
X147500000Y-86000000I0J500000D01*
G01*
X52499999Y-53207107D02*
G75*
G03*
X52499999Y-53000001I-1126241823J103553D01*
G01*
X53000000Y-120500000D02*
G75*
G03*
X52500000Y-120999999I0J-500000D01*
G01*
X52999999Y-134500000D02*
G75*
G03*
X52500000Y-134999999I1J-500000D01*
G01*
X147500001Y-118000000D02*
G75*
G03*
X147000000Y-117499999I-500001J0D01*
G01*
X53000000Y-68500000D02*
G75*
G03*
X52500000Y-68999999I0J-500000D01*
G01*
X52999996Y-92500020D02*
G75*
G03*
X52500001Y-92792891I-82096J-433080D01*
G01*
X52999999Y-102500000D02*
G75*
G03*
X52500000Y-102999999I1J-500000D01*
G01*
X147500001Y-122000000D02*
G75*
G03*
X147000000Y-121499999I-500001J0D01*
G01*
X52500001Y-104999999D02*
G75*
G03*
X52999999Y-105499999I499999J-1D01*
G01*
X52999999Y-126500000D02*
G75*
G03*
X52500000Y-126999999I1J-500000D01*
G01*
X52999999Y-138500000D02*
G75*
G03*
X52500000Y-138999999I1J-500000D01*
G01*
X147000000Y-120500000D02*
G75*
G03*
X147500000Y-120000000I0J500000D01*
G01*
X147499998Y-60000001D02*
G75*
G03*
X147000000Y-59500002I-499998J1D01*
G01*
X52499999Y-108999999D02*
G75*
G03*
X52499999Y-108792891I-1126241823J103554D01*
G01*
X147500000Y-131999999D02*
G75*
G03*
X147000000Y-131500000I-500000J-1D01*
G01*
X52500001Y-96999999D02*
G75*
G03*
X52999999Y-97499999I499999J-1D01*
G01*
X147499998Y-52000002D02*
G75*
G03*
X147000000Y-51500002I-499998J2D01*
G01*
X52999999Y-74500000D02*
G75*
G03*
X52500000Y-74999999I1J-500000D01*
G01*
X52499999Y-53000001D02*
G75*
G03*
X52499999Y-52792893I-1126241823J103554D01*
G01*
X52999999Y-90500000D02*
G75*
G03*
X52500000Y-90999999I1J-500000D01*
G01*
X147000000Y-74500000D02*
G75*
G03*
X147500000Y-74000000I0J500000D01*
G01*
X52500001Y-80999999D02*
G75*
G03*
X52999999Y-81499999I499999J-1D01*
G01*
X52500000Y-138999999D02*
G75*
G03*
X52999999Y-139500000I500000J-1D01*
G01*
%TD*%
D12*
X50000000Y-155000000D02*
G75*
G03*
X55000000Y-160000000I5000000J0D01*
G01*
X135000000Y-50000000D02*
X110000000Y-50000000D01*
X100000000Y-160000000D02*
G75*
G03*
X105000000Y-155000000I0J5000000D01*
G01*
X60000000Y-45000000D02*
G75*
G03*
X65000000Y-50000000I5000000J0D01*
G01*
X95000000Y-155000000D02*
G75*
G03*
X90000000Y-150000000I-5000000J0D01*
G01*
X110000000Y-150000000D02*
G75*
G03*
X105000000Y-155000000I0J-5000000D01*
G01*
X140000000Y-155000000D02*
G75*
G03*
X145000000Y-160000000I5000000J0D01*
G01*
X60000000Y-45000000D02*
G75*
G03*
X55000000Y-40000000I-5000000J0D01*
G01*
X105000000Y-45000000D02*
G75*
G03*
X100000000Y-40000000I-5000000J0D01*
G01*
X50000000Y-45000000D02*
X50000000Y-85000000D01*
X145000000Y-160000000D02*
G75*
G03*
X150000000Y-155000000I0J5000000D01*
G01*
X90000000Y-50000000D02*
X65000000Y-50000000D01*
X40000000Y-105000000D02*
G75*
G03*
X45000000Y-110000000I5000000J0D01*
G01*
X55000000Y-40000000D02*
G75*
G03*
X50000000Y-45000000I0J-5000000D01*
G01*
X145000000Y-40000000D02*
G75*
G03*
X140000000Y-45000000I0J-5000000D01*
G01*
X100000000Y-40000000D02*
G75*
G03*
X95000000Y-45000000I0J-5000000D01*
G01*
X50000001Y-115000000D02*
G75*
G03*
X45000000Y-109999999I-5000001J0D01*
G01*
X90000000Y-50000000D02*
G75*
G03*
X95000000Y-45000000I0J5000000D01*
G01*
X150000000Y-155000000D02*
X150000000Y-45000000D01*
X95000000Y-155000000D02*
G75*
G03*
X100000000Y-160000000I5000000J0D01*
G01*
X45000000Y-90000000D02*
G75*
G03*
X50000000Y-85000000I0J5000000D01*
G01*
X65000000Y-150000000D02*
G75*
G03*
X60000000Y-155000000I0J-5000000D01*
G01*
X50000000Y-115000000D02*
X50000000Y-155000000D01*
X40000000Y-95000000D02*
X40000000Y-105000000D01*
X110000000Y-150000000D02*
X135000000Y-150000000D01*
X150000000Y-45000000D02*
G75*
G03*
X145000000Y-40000000I-5000000J0D01*
G01*
X105000000Y-45000000D02*
G75*
G03*
X110000000Y-50000000I5000000J0D01*
G01*
X55000000Y-160000000D02*
G75*
G03*
X60000000Y-155000000I0J5000000D01*
G01*
X45000000Y-90000000D02*
G75*
G03*
X40000000Y-95000000I0J-5000000D01*
G01*
X65000000Y-150000000D02*
X90000000Y-150000000D01*
X140000000Y-155000000D02*
G75*
G03*
X135000000Y-150000000I-5000000J0D01*
G01*
X135000000Y-50000000D02*
G75*
G03*
X140000000Y-45000000I0J5000000D01*
G01*
M02*
